<?xml version="1.0" encoding="UTF-8" standalone="no"?>
<!-- Generator: Adobe Illustrator 14.0.0, SVG Export Plug-In . SVG Version: 6.00 Build 43363)  -->
<svg id="Layer_1" xmlns:rdf="http://www.w3.org/1999/02/22-rdf-syntax-ns#" xmlns="http://www.w3.org/2000/svg" enable-background="new 0 0 98.918 100" xml:space="preserve" height="12" viewBox="0 0 11.87016 12" width="11.87" version="1.0" y="0px" x="0px" xmlns:cc="http://creativecommons.org/ns#" xmlns:dc="http://purl.org/dc/elements/1.1/"><metadata id="metadata13"><rdf:RDF><cc:Work rdf:about=""><dc:format>image/svg+xml</dc:format><dc:type rdf:resource="http://purl.org/dc/dcmitype/StillImage"/><dc:title/></cc:Work></rdf:RDF></metadata>
<g id="g4400" fill="#FFF" transform="matrix(0.12,0,0,0.12,0,-3.7021668e-7)"><ellipse id="ellipse3" d="M 27.132,86.286003 C 27.132,93.860036 21.058295,100 13.566,100 6.0737051,100 0,93.860036 0,86.286003 c 0,-7.574033 6.0737051,-13.714 13.566,-13.714 7.492295,0 13.566,6.139967 13.566,13.714 z" rx="13.566" ry="13.714" cy="86.286" cx="13.566"/><path id="path5" d="M65.569,100h-19.219c0-25.879-20.752-46.858-46.35-46.858v-19.427c36.214,0,65.569,29.676,65.569,66.285z"/><path id="path7" d="M79.135,100c0-44.183-35.429-80-79.135-80v-20c54.631,0,98.918,44.772,98.918,100h-19.783z"/></g>
</svg>
